<?xml version="1.0" encoding="utf-8"?>
<!-- Generator: Adobe Illustrator 27.5.0, SVG Export Plug-In . SVG Version: 6.00 Build 0)  -->
<svg version="1.1" id="popup" xmlns="http://www.w3.org/2000/svg" xmlns:xlink="http://www.w3.org/1999/xlink" x="0px" y="0px"
	 viewBox="0 0 322 278" style="enable-background:new 0 0 322 278;" xml:space="preserve">
<style type="text/css">
	.st0{clip-path:url(#SVGID_00000168829749308507096780000008550252238823165349_);}
	.st1{fill:url(#SVGID_00000162314616842569036030000007415591144635964580_);}
	.st2{fill:url(#SVGID_00000103249984131571124380000012057213551025749671_);}
	.st3{fill:#D5D5D5;}
	.st4{fill:#FFFFFF;}
	.st5{fill:#CCC6D9;}
	.st6{fill-rule:evenodd;clip-rule:evenodd;fill:#CCC6D9;}
	.st7{fill:#FFFFFF;fill-opacity:0.3;}
	.st8{fill:#E1DCEB;}
	.st9{fill-rule:evenodd;clip-rule:evenodd;}
	.st10{fill:#E3E3E3;}
</style>
<g>
	<g>
		<defs>
			<rect id="SVGID_1_" x="10" y="-10" width="300" height="300"/>
		</defs>
		<clipPath id="SVGID_00000158022472640619532090000008755800440732007587_">
			<use xlink:href="#SVGID_1_"  style="overflow:visible;"/>
		</clipPath>
		<g style="clip-path:url(#SVGID_00000158022472640619532090000008755800440732007587_);">
			
				<linearGradient id="SVGID_00000164511764241408087590000014099940243042028693_" gradientUnits="userSpaceOnUse" x1="159.0722" y1="522.0749" x2="161.5302" y2="100.653" gradientTransform="matrix(1 0 0 -1 0 502)">
				<stop  offset="0" style="stop-color:#F2F2F2"/>
				<stop  offset="1" style="stop-color:#EFEFEF"/>
			</linearGradient>
			<path style="fill:url(#SVGID_00000164511764241408087590000014099940243042028693_);" d="M160,259c66.3,0,120-53.7,120-120
				S226.3,19,160,19S40,72.7,40,139S93.7,259,160,259z"/>
			<g>
				
					<linearGradient id="SVGID_00000018932278052702853020000018379156326013039517_" gradientUnits="userSpaceOnUse" x1="161.2685" y1="448.444" x2="161.2685" y2="293.415" gradientTransform="matrix(1 0 0 -1 0 502)">
					<stop  offset="0" style="stop-color:#FFFFFF"/>
					<stop  offset="0.7188" style="stop-color:#FAFAFA"/>
				</linearGradient>
				<path style="fill:url(#SVGID_00000018932278052702853020000018379156326013039517_);" d="M115,53.6h92.5c8.8,0,16,7.2,16,16v123
					c0,8.8-7.2,16-16,16H115c-8.8,0-16-7.2-16-16v-123C99,60.7,106.2,53.6,115,53.6z"/>
			</g>
			<path d="M114.9,73.6h40.2c2.7,0,4.9,2.2,4.9,4.9v0c0,2.7-2.2,4.9-4.9,4.9h-40.2c-2.7,0-4.9-2.2-4.9-4.9v0
				C110,75.7,112.2,73.6,114.9,73.6z"/>
			<path class="st3" d="M114.9,101.4h90.2c2.7,0,4.9,2.2,4.9,4.9v0c0,2.7-2.2,4.9-4.9,4.9h-90.2c-2.7,0-4.9-2.2-4.9-4.9v0
				C110,103.5,112.2,101.4,114.9,101.4z"/>
			<path class="st3" d="M114.9,129.2h90.2c2.7,0,4.9,2.2,4.9,4.9v0c0,2.7-2.2,4.9-4.9,4.9h-90.2c-2.7,0-4.9-2.2-4.9-4.9v0
				C110,131.3,112.2,129.2,114.9,129.2z"/>
			<path class="st3" d="M114.9,157h90.2c2.7,0,4.9,2.2,4.9,4.9v0c0,2.7-2.2,4.9-4.9,4.9h-90.2c-2.7,0-4.9-2.2-4.9-4.9v0
				C110,159.1,112.2,157,114.9,157z"/>
			<path class="st3" d="M114.9,184.8h90.2c2.7,0,4.9,2.2,4.9,4.9l0,0c0,2.7-2.2,4.9-4.9,4.9h-90.2c-2.7,0-4.9-2.2-4.9-4.9l0,0
				C110,186.9,112.2,184.8,114.9,184.8z"/>
			<g>
				<path class="st4" d="M298.1,36.4h-60.1c-2.8,0-5.1,2.4-5.1,5.3v29.7c0,2.9,2.3,5.3,5.1,5.3h60.1c2.8,0,5.1-2.4,5.1-5.3V41.8
					C303.2,38.8,301,36.4,298.1,36.4z"/>
			</g>
			<path class="st5" d="M248,63c3.3,0,6-2.7,6-6c0-3.3-2.7-6-6-6s-6,2.7-6,6C242,60.3,244.7,63,248,63z"/>
			<path class="st3" d="M268,51h20c3.3,0,6,2.7,6,6l0,0c0,3.3-2.7,6-6,6h-20c-3.3,0-6-2.7-6-6l0,0C262,53.7,264.7,51,268,51z"/>
			<path class="st6" d="M195.1,215.6c12.9,0,24.8-3.9,34.8-10.6l40.7,38.9l14.8-17.1l-39.3-37.5c7.3-10.2,11.5-22.7,11.5-36.2
				c0-34.5-28-62.5-62.5-62.5c-34.5,0-62.5,28-62.5,62.5C132.6,187.6,160.6,215.6,195.1,215.6z M248.4,153.1
				c0,29.2-23.7,52.9-52.9,52.9s-52.9-23.7-52.9-52.9c0-29.2,23.7-52.9,52.9-52.9S248.4,123.8,248.4,153.1z"/>
			<g>
				<path class="st7" d="M195.5,207c30.1,0,54.5-24.2,54.5-54s-24.4-54-54.5-54S141,123.2,141,153S165.4,207,195.5,207z"/>
			</g>
			<path d="M204.9,153l13.2-13.1c1.2-1.3,1.9-3,1.9-4.8c0-1.8-0.8-3.5-2-4.8c-1.3-1.3-3-2-4.8-2c-1.8,0-3.5,0.6-4.8,1.9l-13.2,13.1
				l-13.2-13.1c-0.6-0.7-1.4-1.2-2.2-1.6c-0.8-0.4-1.8-0.6-2.7-0.6s-1.8,0.2-2.7,0.5c-0.9,0.3-1.6,0.9-2.3,1.5
				c-0.7,0.6-1.2,1.4-1.5,2.3c-0.3,0.9-0.5,1.8-0.5,2.7c0,0.9,0.2,1.8,0.6,2.7c0.4,0.8,0.9,1.6,1.6,2.2l13.2,13.1l-13.2,13.1
				c-0.7,0.6-1.2,1.4-1.6,2.2c-0.4,0.8-0.6,1.7-0.6,2.7c0,0.9,0.2,1.8,0.5,2.7c0.3,0.9,0.9,1.6,1.5,2.3c0.7,0.6,1.4,1.2,2.3,1.5
				c0.9,0.3,1.8,0.5,2.7,0.5s1.8-0.2,2.7-0.6c0.8-0.4,1.6-0.9,2.2-1.6l13.2-13.1l13.2,13.1c1.3,1.2,3,1.8,4.8,1.7
				c1.8-0.1,3.4-0.8,4.7-2c1.2-1.2,2-2.9,2-4.6c0.1-1.7-0.6-3.4-1.7-4.8L204.9,153z"/>
			<path class="st8" d="M270.6,243.8l14.8-17.1l2.2,2.1c2.2,2.1,3.4,4.9,3.6,8c0.1,3.1-0.9,6.1-2.8,8.3c-2,2.3-4.7,3.6-7.6,3.8
				c-2.9,0.1-5.8-0.9-7.9-3L270.6,243.8L270.6,243.8z"/>
			<path class="st9" d="M66.3,81.2c0-1.4-0.2-2.9-0.6-4.3c-1.3-5.1-6.9-8.3-12.8-9.1c-6-0.8-12.1,1-14.5,5.4c-1.4,2.5-1.6,4.7-1,6.5
				c0.6,1.8,1.9,3.3,3.7,4.5c5,3.3,13.7,4,17.7,2.6c1.8-0.6,3.6-1.4,5.4-2.3c-1,5.7-4.7,11.2-9.7,16.1
				c-10.8,10.7-27.7,18.8-36.8,21.7c-0.5,0.2-0.8,0.7-0.6,1.2c0.2,0.5,0.7,0.8,1.2,0.6c9.3-3,26.5-11.3,37.5-22.2
				c5.7-5.6,9.8-11.9,10.5-18.6c12.9-7.2,23.5-20.3,32.6-31.3c0.3-0.4,0.3-1-0.1-1.4c-0.4-0.3-1-0.3-1.3,0.1
				C88.7,61.5,78.6,74,66.3,81.2z M64.4,82.2c0.1-1.6-0.1-3.2-0.5-4.9c-1.1-4.4-6.1-7-11.2-7.7c-3.2-0.4-6.4-0.1-9,1.1
				c-1.6,0.7-2.9,1.8-3.7,3.3c-1,1.9-1.3,3.6-0.8,5c0.4,1.4,1.5,2.6,2.9,3.5c4.5,3,12.5,3.6,16.1,2.4C60.3,84.2,62.4,83.3,64.4,82.2
				z"/>
			<circle class="st10" cx="295" cy="174" r="6"/>
			<path class="st6" d="M68.4,215.4c1.1-0.4,2.2-0.9,3.1-1.7c1-0.9,1.5-2.1,1.7-3.3c0.4-1.6,0.5-3.3,0.9-4.9
				c0.2-0.6,0.5-0.8,0.6-0.9c0.3-0.3,0.7-0.3,1-0.3c0.4,0,0.9,0.2,1.3,0.9c0,0.1,0.1,0.2,0.2,0.4c0,0.1,0.1,0.6,0.1,0.8
				c0.1,0.5,0.2,0.9,0.2,1.4c0.2,1.6,0.3,2.9,1,4.3c0.9,2,1.9,3.2,3.1,3.7c1.2,0.5,2.7,0.4,4.6,0c0.2,0,0.4-0.1,0.5-0.1
				c0.8-0.2,1.6,0.4,1.8,1.3c0.2,0.9-0.4,1.7-1.2,1.9c-0.2,0-0.3,0.1-0.5,0.1c-2.5,0.7-5.4,3-7.1,5.1c-0.5,0.6-1.3,2.4-2.1,3.5
				c-0.6,0.8-1.2,1.4-1.8,1.6c-0.4,0.1-0.7,0.1-0.9,0c-0.4-0.1-0.7-0.3-0.9-0.6c-0.1-0.2-0.2-0.4-0.3-0.7c0-0.2,0-0.5,0-0.7
				c-0.2-0.6-0.4-1.1-0.5-1.7c-0.3-1.4-1-2.3-1.8-3.4c-0.7-1.1-1.5-1.8-2.7-2.3c-0.2,0-1.4-0.4-1.8-0.5c-0.6-0.3-0.9-0.7-1-0.9
				c-0.2-0.4-0.2-0.8-0.2-1.1c0.1-0.4,0.2-0.8,0.6-1.1c0.2-0.2,0.5-0.4,0.9-0.5C67.4,215.4,68.3,215.4,68.4,215.4z M75.6,213.1
				c0.1,0.1,0.1,0.3,0.2,0.4c1.4,2.9,2.9,4.5,4.7,5.2l0.1,0c-1.2,1-2.4,2.1-3.2,3.1c-0.4,0.4-0.8,1.3-1.3,2.2
				c-0.5-1.6-1.2-2.7-2.2-4.1c-0.7-1.1-1.5-1.9-2.4-2.5c0.7-0.4,1.4-0.8,2-1.4C74.4,215.3,75.1,214.2,75.6,213.1z"/>
		</g>
	</g>
</g>
</svg>
